<mxfile host="app.diagrams.net" agent="Mozilla/5.0 (Windows NT 10.0; Win64; x64; rv:128.0) Gecko/20100101 Firefox/128.0" version="24.7.6">
  <diagram name="Page-1" id="bTLX6Nh3ew-pliMBONU2">
    <mxGraphModel dx="1152" dy="588" grid="1" gridSize="10" guides="1" tooltips="1" connect="1" arrows="1" fold="1" page="1" pageScale="1" pageWidth="2339" pageHeight="3300" math="0" shadow="0">
      <root>
        <mxCell id="0" />
        <mxCell id="1" parent="0" />
        <mxCell id="aj9RGWDby_pSW8Tbd3L7-42" style="edgeStyle=orthogonalEdgeStyle;rounded=0;orthogonalLoop=1;jettySize=auto;html=1;" edge="1" parent="1" source="aj9RGWDby_pSW8Tbd3L7-39">
          <mxGeometry relative="1" as="geometry">
            <mxPoint x="800" y="760.0000000000002" as="targetPoint" />
          </mxGeometry>
        </mxCell>
        <mxCell id="aj9RGWDby_pSW8Tbd3L7-39" value="Data Check?" style="rhombus;whiteSpace=wrap;html=1;" vertex="1" parent="1">
          <mxGeometry x="600" y="600" width="80" height="80" as="geometry" />
        </mxCell>
        <mxCell id="aj9RGWDby_pSW8Tbd3L7-13" style="edgeStyle=orthogonalEdgeStyle;rounded=0;orthogonalLoop=1;jettySize=auto;html=1;exitX=0.5;exitY=1;exitDx=0;exitDy=0;entryX=0.5;entryY=0;entryDx=0;entryDy=0;" edge="1" parent="1" source="aj9RGWDby_pSW8Tbd3L7-1" target="aj9RGWDby_pSW8Tbd3L7-2">
          <mxGeometry relative="1" as="geometry" />
        </mxCell>
        <mxCell id="aj9RGWDby_pSW8Tbd3L7-1" value="&lt;div&gt;START&lt;/div&gt;" style="rounded=1;whiteSpace=wrap;html=1;" vertex="1" parent="1">
          <mxGeometry x="240" y="280" width="120" height="60" as="geometry" />
        </mxCell>
        <mxCell id="aj9RGWDby_pSW8Tbd3L7-14" style="edgeStyle=orthogonalEdgeStyle;rounded=0;orthogonalLoop=1;jettySize=auto;html=1;exitX=0.5;exitY=1;exitDx=0;exitDy=0;" edge="1" parent="1" source="aj9RGWDby_pSW8Tbd3L7-2" target="aj9RGWDby_pSW8Tbd3L7-3">
          <mxGeometry relative="1" as="geometry" />
        </mxCell>
        <mxCell id="aj9RGWDby_pSW8Tbd3L7-2" value="Serial Initiation" style="rounded=0;whiteSpace=wrap;html=1;" vertex="1" parent="1">
          <mxGeometry x="240" y="380" width="120" height="60" as="geometry" />
        </mxCell>
        <mxCell id="aj9RGWDby_pSW8Tbd3L7-15" style="edgeStyle=orthogonalEdgeStyle;rounded=0;orthogonalLoop=1;jettySize=auto;html=1;exitX=0.5;exitY=1;exitDx=0;exitDy=0;entryX=0.5;entryY=0;entryDx=0;entryDy=0;" edge="1" parent="1" source="aj9RGWDby_pSW8Tbd3L7-3">
          <mxGeometry relative="1" as="geometry">
            <mxPoint x="300" y="584.5" as="targetPoint" />
          </mxGeometry>
        </mxCell>
        <mxCell id="aj9RGWDby_pSW8Tbd3L7-17" style="edgeStyle=orthogonalEdgeStyle;rounded=0;orthogonalLoop=1;jettySize=auto;html=1;exitX=0;exitY=0.5;exitDx=0;exitDy=0;" edge="1" parent="1" source="aj9RGWDby_pSW8Tbd3L7-3">
          <mxGeometry relative="1" as="geometry">
            <mxPoint x="170" y="800" as="targetPoint" />
          </mxGeometry>
        </mxCell>
        <mxCell id="aj9RGWDby_pSW8Tbd3L7-3" value="Serial?" style="rhombus;whiteSpace=wrap;html=1;" vertex="1" parent="1">
          <mxGeometry x="260" y="470" width="80" height="80" as="geometry" />
        </mxCell>
        <mxCell id="aj9RGWDby_pSW8Tbd3L7-12" style="edgeStyle=orthogonalEdgeStyle;rounded=0;orthogonalLoop=1;jettySize=auto;html=1;exitX=0.5;exitY=1;exitDx=0;exitDy=0;entryX=0.5;entryY=0;entryDx=0;entryDy=0;" edge="1" parent="1" target="aj9RGWDby_pSW8Tbd3L7-5">
          <mxGeometry relative="1" as="geometry">
            <mxPoint x="300" y="644.5" as="sourcePoint" />
          </mxGeometry>
        </mxCell>
        <mxCell id="aj9RGWDby_pSW8Tbd3L7-9" style="edgeStyle=orthogonalEdgeStyle;rounded=0;orthogonalLoop=1;jettySize=auto;html=1;exitX=1;exitY=0.5;exitDx=0;exitDy=0;" edge="1" parent="1" source="aj9RGWDby_pSW8Tbd3L7-5" target="aj9RGWDby_pSW8Tbd3L7-6">
          <mxGeometry relative="1" as="geometry" />
        </mxCell>
        <mxCell id="aj9RGWDby_pSW8Tbd3L7-11" style="edgeStyle=orthogonalEdgeStyle;rounded=0;orthogonalLoop=1;jettySize=auto;html=1;exitX=0.5;exitY=1;exitDx=0;exitDy=0;" edge="1" parent="1" source="aj9RGWDby_pSW8Tbd3L7-5">
          <mxGeometry relative="1" as="geometry">
            <mxPoint x="300" y="800" as="targetPoint" />
          </mxGeometry>
        </mxCell>
        <mxCell id="aj9RGWDby_pSW8Tbd3L7-5" value="State Change?" style="rhombus;whiteSpace=wrap;html=1;" vertex="1" parent="1">
          <mxGeometry x="260" y="680" width="80" height="80" as="geometry" />
        </mxCell>
        <mxCell id="aj9RGWDby_pSW8Tbd3L7-10" style="edgeStyle=orthogonalEdgeStyle;rounded=0;orthogonalLoop=1;jettySize=auto;html=1;exitX=0.5;exitY=1;exitDx=0;exitDy=0;entryX=0.5;entryY=0;entryDx=0;entryDy=0;" edge="1" parent="1" source="aj9RGWDby_pSW8Tbd3L7-6">
          <mxGeometry relative="1" as="geometry">
            <mxPoint x="300" y="850" as="targetPoint" />
          </mxGeometry>
        </mxCell>
        <mxCell id="aj9RGWDby_pSW8Tbd3L7-6" value="Change Registors" style="rounded=0;whiteSpace=wrap;html=1;" vertex="1" parent="1">
          <mxGeometry x="414" y="690" width="120" height="60" as="geometry" />
        </mxCell>
        <mxCell id="aj9RGWDby_pSW8Tbd3L7-16" value="Yes" style="text;html=1;align=center;verticalAlign=middle;resizable=0;points=[];autosize=1;strokeColor=none;fillColor=none;" vertex="1" parent="1">
          <mxGeometry x="305" y="550" width="40" height="30" as="geometry" />
        </mxCell>
        <mxCell id="aj9RGWDby_pSW8Tbd3L7-18" value="" style="endArrow=classic;html=1;rounded=0;" edge="1" parent="1">
          <mxGeometry width="50" height="50" relative="1" as="geometry">
            <mxPoint x="170" y="800" as="sourcePoint" />
            <mxPoint x="300" y="800" as="targetPoint" />
          </mxGeometry>
        </mxCell>
        <mxCell id="aj9RGWDby_pSW8Tbd3L7-19" value="No" style="text;html=1;align=center;verticalAlign=middle;resizable=0;points=[];autosize=1;strokeColor=none;fillColor=none;" vertex="1" parent="1">
          <mxGeometry x="210" y="480" width="40" height="30" as="geometry" />
        </mxCell>
        <mxCell id="aj9RGWDby_pSW8Tbd3L7-21" value="Yes" style="text;html=1;align=center;verticalAlign=middle;resizable=0;points=[];autosize=1;strokeColor=none;fillColor=none;" vertex="1" parent="1">
          <mxGeometry x="340" y="690" width="40" height="30" as="geometry" />
        </mxCell>
        <mxCell id="aj9RGWDby_pSW8Tbd3L7-23" value="No" style="text;html=1;align=center;verticalAlign=middle;resizable=0;points=[];autosize=1;strokeColor=none;fillColor=none;" vertex="1" parent="1">
          <mxGeometry x="300" y="760" width="40" height="30" as="geometry" />
        </mxCell>
        <mxCell id="aj9RGWDby_pSW8Tbd3L7-26" style="edgeStyle=orthogonalEdgeStyle;rounded=0;orthogonalLoop=1;jettySize=auto;html=1;entryX=0.5;entryY=0;entryDx=0;entryDy=0;" edge="1" parent="1" source="aj9RGWDby_pSW8Tbd3L7-24" target="aj9RGWDby_pSW8Tbd3L7-25">
          <mxGeometry relative="1" as="geometry" />
        </mxCell>
        <mxCell id="aj9RGWDby_pSW8Tbd3L7-24" value="PWM Control" style="ellipse;whiteSpace=wrap;html=1;" vertex="1" parent="1">
          <mxGeometry x="240" y="850" width="120" height="80" as="geometry" />
        </mxCell>
        <mxCell id="aj9RGWDby_pSW8Tbd3L7-27" style="edgeStyle=orthogonalEdgeStyle;rounded=0;orthogonalLoop=1;jettySize=auto;html=1;" edge="1" parent="1" source="aj9RGWDby_pSW8Tbd3L7-25">
          <mxGeometry relative="1" as="geometry">
            <mxPoint x="120" y="450" as="targetPoint" />
          </mxGeometry>
        </mxCell>
        <mxCell id="aj9RGWDby_pSW8Tbd3L7-25" value="Data Report" style="ellipse;whiteSpace=wrap;html=1;" vertex="1" parent="1">
          <mxGeometry x="240" y="960" width="120" height="80" as="geometry" />
        </mxCell>
        <mxCell id="aj9RGWDby_pSW8Tbd3L7-28" value="" style="endArrow=classic;html=1;rounded=0;" edge="1" parent="1">
          <mxGeometry width="50" height="50" relative="1" as="geometry">
            <mxPoint x="120" y="450" as="sourcePoint" />
            <mxPoint x="300" y="450" as="targetPoint" />
          </mxGeometry>
        </mxCell>
        <mxCell id="aj9RGWDby_pSW8Tbd3L7-32" style="edgeStyle=orthogonalEdgeStyle;rounded=0;orthogonalLoop=1;jettySize=auto;html=1;entryX=0.5;entryY=0;entryDx=0;entryDy=0;" edge="1" parent="1" source="aj9RGWDby_pSW8Tbd3L7-29" target="aj9RGWDby_pSW8Tbd3L7-31">
          <mxGeometry relative="1" as="geometry" />
        </mxCell>
        <mxCell id="aj9RGWDby_pSW8Tbd3L7-29" value="&lt;div&gt;Read Serial&lt;/div&gt;&lt;div&gt;Begin&lt;/div&gt;" style="ellipse;whiteSpace=wrap;html=1;" vertex="1" parent="1">
          <mxGeometry x="580" y="330" width="120" height="70" as="geometry" />
        </mxCell>
        <mxCell id="aj9RGWDby_pSW8Tbd3L7-30" value="Read Serial" style="ellipse;whiteSpace=wrap;html=1;" vertex="1" parent="1">
          <mxGeometry x="240" y="580" width="120" height="80" as="geometry" />
        </mxCell>
        <mxCell id="aj9RGWDby_pSW8Tbd3L7-34" value="" style="edgeStyle=orthogonalEdgeStyle;rounded=0;orthogonalLoop=1;jettySize=auto;html=1;entryX=0.5;entryY=0;entryDx=0;entryDy=0;" edge="1" parent="1" source="aj9RGWDby_pSW8Tbd3L7-31" target="aj9RGWDby_pSW8Tbd3L7-39">
          <mxGeometry relative="1" as="geometry">
            <mxPoint x="640" y="590.0000000000002" as="targetPoint" />
          </mxGeometry>
        </mxCell>
        <mxCell id="aj9RGWDby_pSW8Tbd3L7-31" value="Decode" style="rounded=0;whiteSpace=wrap;html=1;" vertex="1" parent="1">
          <mxGeometry x="580" y="450" width="120" height="60" as="geometry" />
        </mxCell>
        <mxCell id="aj9RGWDby_pSW8Tbd3L7-36" value="" style="edgeStyle=orthogonalEdgeStyle;rounded=0;orthogonalLoop=1;jettySize=auto;html=1;" edge="1" parent="1">
          <mxGeometry relative="1" as="geometry">
            <mxPoint x="639.7700000000001" y="680" as="sourcePoint" />
            <mxPoint x="639.7700000000001" y="760" as="targetPoint" />
            <Array as="points">
              <mxPoint x="639.94" y="740" />
              <mxPoint x="639.94" y="740" />
            </Array>
          </mxGeometry>
        </mxCell>
        <mxCell id="aj9RGWDby_pSW8Tbd3L7-38" value="" style="edgeStyle=orthogonalEdgeStyle;rounded=0;orthogonalLoop=1;jettySize=auto;html=1;" edge="1" parent="1">
          <mxGeometry relative="1" as="geometry">
            <mxPoint x="639.72" y="820.0000000000002" as="sourcePoint" />
            <mxPoint x="639.72" y="890" as="targetPoint" />
          </mxGeometry>
        </mxCell>
        <mxCell id="aj9RGWDby_pSW8Tbd3L7-35" value="Received Confirmation" style="rounded=0;whiteSpace=wrap;html=1;" vertex="1" parent="1">
          <mxGeometry x="580" y="760" width="120" height="60" as="geometry" />
        </mxCell>
        <mxCell id="aj9RGWDby_pSW8Tbd3L7-41" value="Yes" style="text;html=1;align=center;verticalAlign=middle;resizable=0;points=[];autosize=1;strokeColor=none;fillColor=none;" vertex="1" parent="1">
          <mxGeometry x="640" y="688" width="40" height="30" as="geometry" />
        </mxCell>
        <mxCell id="aj9RGWDby_pSW8Tbd3L7-45" style="edgeStyle=orthogonalEdgeStyle;rounded=0;orthogonalLoop=1;jettySize=auto;html=1;" edge="1" parent="1" source="aj9RGWDby_pSW8Tbd3L7-43">
          <mxGeometry relative="1" as="geometry">
            <mxPoint x="800" y="890.0000000000002" as="targetPoint" />
          </mxGeometry>
        </mxCell>
        <mxCell id="aj9RGWDby_pSW8Tbd3L7-43" value="Err " style="whiteSpace=wrap;html=1;" vertex="1" parent="1">
          <mxGeometry x="740" y="760" width="120" height="60" as="geometry" />
        </mxCell>
        <mxCell id="aj9RGWDby_pSW8Tbd3L7-44" value="No" style="text;html=1;align=center;verticalAlign=middle;resizable=0;points=[];autosize=1;strokeColor=none;fillColor=none;" vertex="1" parent="1">
          <mxGeometry x="690" y="608" width="40" height="30" as="geometry" />
        </mxCell>
        <mxCell id="aj9RGWDby_pSW8Tbd3L7-46" value="Exit with 1" style="ellipse;whiteSpace=wrap;html=1;" vertex="1" parent="1">
          <mxGeometry x="580" y="890" width="120" height="80" as="geometry" />
        </mxCell>
        <mxCell id="aj9RGWDby_pSW8Tbd3L7-47" value="Exit with 0" style="ellipse;whiteSpace=wrap;html=1;" vertex="1" parent="1">
          <mxGeometry x="740" y="890" width="120" height="80" as="geometry" />
        </mxCell>
        <mxCell id="aj9RGWDby_pSW8Tbd3L7-48" value="&lt;div&gt;PWM Control&lt;/div&gt;&lt;div&gt;Begin&lt;br&gt;&lt;/div&gt;" style="ellipse;whiteSpace=wrap;html=1;" vertex="1" parent="1">
          <mxGeometry x="960" y="330" width="120" height="70" as="geometry" />
        </mxCell>
        <mxCell id="aj9RGWDby_pSW8Tbd3L7-50" style="edgeStyle=orthogonalEdgeStyle;rounded=0;orthogonalLoop=1;jettySize=auto;html=1;" edge="1" parent="1" source="aj9RGWDby_pSW8Tbd3L7-49">
          <mxGeometry relative="1" as="geometry">
            <mxPoint x="1170" y="1080" as="targetPoint" />
          </mxGeometry>
        </mxCell>
        <mxCell id="aj9RGWDby_pSW8Tbd3L7-52" style="edgeStyle=orthogonalEdgeStyle;rounded=0;orthogonalLoop=1;jettySize=auto;html=1;" edge="1" parent="1" source="aj9RGWDby_pSW8Tbd3L7-49">
          <mxGeometry relative="1" as="geometry">
            <mxPoint x="1020" y="560.0000000000002" as="targetPoint" />
          </mxGeometry>
        </mxCell>
        <mxCell id="aj9RGWDby_pSW8Tbd3L7-49" value="&lt;div&gt;Enough time?&lt;/div&gt;" style="rhombus;whiteSpace=wrap;html=1;" vertex="1" parent="1">
          <mxGeometry x="980" y="440" width="80" height="80" as="geometry" />
        </mxCell>
        <mxCell id="aj9RGWDby_pSW8Tbd3L7-51" value="&lt;div&gt;No&lt;/div&gt;" style="text;html=1;align=center;verticalAlign=middle;resizable=0;points=[];autosize=1;strokeColor=none;fillColor=none;" vertex="1" parent="1">
          <mxGeometry x="1080" y="458" width="40" height="30" as="geometry" />
        </mxCell>
        <mxCell id="aj9RGWDby_pSW8Tbd3L7-55" value="" style="edgeStyle=orthogonalEdgeStyle;rounded=0;orthogonalLoop=1;jettySize=auto;html=1;" edge="1" parent="1" source="aj9RGWDby_pSW8Tbd3L7-53" target="aj9RGWDby_pSW8Tbd3L7-54">
          <mxGeometry relative="1" as="geometry" />
        </mxCell>
        <mxCell id="aj9RGWDby_pSW8Tbd3L7-53" value="Read Curve Value" style="whiteSpace=wrap;html=1;" vertex="1" parent="1">
          <mxGeometry x="960" y="560" width="120" height="60" as="geometry" />
        </mxCell>
        <mxCell id="aj9RGWDby_pSW8Tbd3L7-57" value="" style="edgeStyle=orthogonalEdgeStyle;rounded=0;orthogonalLoop=1;jettySize=auto;html=1;" edge="1" parent="1" source="aj9RGWDby_pSW8Tbd3L7-54" target="aj9RGWDby_pSW8Tbd3L7-56">
          <mxGeometry relative="1" as="geometry" />
        </mxCell>
        <mxCell id="aj9RGWDby_pSW8Tbd3L7-54" value="Calculate PWM value" style="whiteSpace=wrap;html=1;" vertex="1" parent="1">
          <mxGeometry x="960" y="700" width="120" height="60" as="geometry" />
        </mxCell>
        <mxCell id="aj9RGWDby_pSW8Tbd3L7-59" value="" style="edgeStyle=orthogonalEdgeStyle;rounded=0;orthogonalLoop=1;jettySize=auto;html=1;" edge="1" parent="1" source="aj9RGWDby_pSW8Tbd3L7-56" target="aj9RGWDby_pSW8Tbd3L7-58">
          <mxGeometry relative="1" as="geometry" />
        </mxCell>
        <mxCell id="aj9RGWDby_pSW8Tbd3L7-56" value="PWM Write value" style="whiteSpace=wrap;html=1;" vertex="1" parent="1">
          <mxGeometry x="960" y="840" width="120" height="60" as="geometry" />
        </mxCell>
        <mxCell id="aj9RGWDby_pSW8Tbd3L7-61" style="edgeStyle=orthogonalEdgeStyle;rounded=0;orthogonalLoop=1;jettySize=auto;html=1;entryX=0.5;entryY=0;entryDx=0;entryDy=0;" edge="1" parent="1" source="aj9RGWDby_pSW8Tbd3L7-58" target="aj9RGWDby_pSW8Tbd3L7-60">
          <mxGeometry relative="1" as="geometry" />
        </mxCell>
        <mxCell id="aj9RGWDby_pSW8Tbd3L7-58" value="index ++" style="whiteSpace=wrap;html=1;" vertex="1" parent="1">
          <mxGeometry x="960" y="980" width="120" height="60" as="geometry" />
        </mxCell>
        <mxCell id="aj9RGWDby_pSW8Tbd3L7-60" value="Exit" style="ellipse;whiteSpace=wrap;html=1;" vertex="1" parent="1">
          <mxGeometry x="960" y="1080" width="120" height="80" as="geometry" />
        </mxCell>
        <mxCell id="aj9RGWDby_pSW8Tbd3L7-62" value="" style="endArrow=classic;html=1;rounded=0;entryX=0.516;entryY=-0.043;entryDx=0;entryDy=0;entryPerimeter=0;" edge="1" parent="1" target="aj9RGWDby_pSW8Tbd3L7-60">
          <mxGeometry width="50" height="50" relative="1" as="geometry">
            <mxPoint x="1170" y="1080" as="sourcePoint" />
            <mxPoint x="770" y="820" as="targetPoint" />
          </mxGeometry>
        </mxCell>
        <mxCell id="aj9RGWDby_pSW8Tbd3L7-63" style="edgeStyle=orthogonalEdgeStyle;rounded=0;orthogonalLoop=1;jettySize=auto;html=1;entryX=0.5;entryY=0;entryDx=0;entryDy=0;" edge="1" parent="1" source="aj9RGWDby_pSW8Tbd3L7-48" target="aj9RGWDby_pSW8Tbd3L7-49">
          <mxGeometry relative="1" as="geometry" />
        </mxCell>
        <mxCell id="aj9RGWDby_pSW8Tbd3L7-64" value="" style="ellipse;whiteSpace=wrap;html=1;" vertex="1" parent="1">
          <mxGeometry x="1330" y="325" width="120" height="80" as="geometry" />
        </mxCell>
      </root>
    </mxGraphModel>
  </diagram>
</mxfile>
